<?xml version="1.0" encoding="UTF-8" standalone="no"?>
<!DOCTYPE svg PUBLIC "-//W3C//DTD SVG 1.1//EN" "http://www.w3.org/Graphics/SVG/1.1/DTD/svg11.dtd">
<svg width="100%" height="100%" viewBox="0 0 148 35" version="1.1" xmlns="http://www.w3.org/2000/svg" xmlns:xlink="http://www.w3.org/1999/xlink" xml:space="preserve" xmlns:serif="http://www.serif.com/" style="fill-rule:evenodd;clip-rule:evenodd;stroke-linejoin:round;stroke-miterlimit:2;">
    <g transform="matrix(1.04914,0,0,1.04914,-3.73993,-3.66021)">
        <path d="M52.387,6.794L52.387,35.603L50.306,35.603L50.306,6.794L46.144,6.794L46.144,4.735L56.55,4.735L56.55,6.794L52.387,6.794Z" style="fill:rgb(58,58,58);fill-rule:nonzero;"/>
        <path d="M69.022,17.074L69.022,15.015C69.022,13.647 68.324,12.956 66.941,12.956L61.738,12.956L61.738,10.897L66.941,10.897C69.721,10.897 71.103,12.265 71.103,15.015L71.103,35.588L64.86,35.588C62.08,35.588 60.697,34.221 60.697,31.471L60.697,21.177C60.697,18.427 62.08,17.059 64.86,17.059L69.022,17.059L69.022,17.074ZM69.022,19.133L64.86,19.133C63.477,19.133 62.779,19.824 62.779,21.191L62.779,31.485C62.779,32.853 63.477,33.544 64.86,33.544L69.022,33.544L69.022,19.133Z" style="fill:rgb(58,58,58);fill-rule:nonzero;"/>
        <path d="M75.266,15.03C75.266,12.28 76.648,10.912 79.428,10.912L81.51,10.912C84.289,10.912 85.672,12.28 85.672,15.03L85.672,19.147L83.591,19.147L83.591,15.03C83.591,13.662 82.892,12.971 81.51,12.971L79.428,12.971C78.046,12.971 77.347,13.662 77.347,15.03L77.347,31.485C77.347,32.853 78.046,33.544 79.428,33.544L81.51,33.544C82.892,33.544 83.591,32.853 83.591,31.485L83.591,27.368L85.672,27.368L85.672,31.485C85.672,34.235 84.289,35.603 81.51,35.603L79.428,35.603C76.648,35.603 75.266,34.235 75.266,31.485L75.266,15.03Z" style="fill:rgb(58,58,58);fill-rule:nonzero;"/>
        <path d="M91.901,12.971L91.901,35.603L89.819,35.603L89.819,4.735L91.901,4.735L91.901,10.912L96.063,10.912C98.843,10.912 100.225,12.28 100.225,15.03L100.225,35.603L98.144,35.603L98.144,15.03C98.144,13.662 97.446,12.971 96.063,12.971L91.901,12.971Z" style="fill:rgb(58,58,58);fill-rule:nonzero;"/>
        <path d="M104.388,4.735L106.469,4.735L106.469,33.544L114.794,33.544L114.794,35.603L104.388,35.603L104.388,4.735Z" style="fill:rgb(58,58,58);fill-rule:nonzero;"/>
        <path d="M127.267,17.074L127.267,15.015C127.267,13.647 126.568,12.956 125.185,12.956L119.982,12.956L119.982,10.897L125.185,10.897C127.965,10.897 129.348,12.265 129.348,15.015L129.348,35.588L123.104,35.588C120.324,35.588 118.942,34.221 118.942,31.471L118.942,21.177C118.942,18.427 120.324,17.059 123.104,17.059L127.267,17.059L127.267,17.074ZM127.267,19.133L123.104,19.133C121.722,19.133 121.023,19.824 121.023,21.191L121.023,31.485C121.023,32.853 121.722,33.544 123.104,33.544L127.267,33.544L127.267,19.133Z" style="fill:rgb(58,58,58);fill-rule:nonzero;"/>
        <path d="M133.51,35.603L133.51,4.735L135.591,4.735L135.591,10.912L139.754,10.912C142.534,10.912 143.916,12.28 143.916,15.03L143.916,31.485C143.916,34.235 142.534,35.603 139.754,35.603L133.51,35.603ZM135.591,12.971L135.591,33.544L139.754,33.544C141.136,33.544 141.835,32.853 141.835,31.485L141.835,15.03C141.835,13.662 141.136,12.971 139.754,12.971L135.591,12.971Z" style="fill:rgb(58,58,58);fill-rule:nonzero;"/>
        <rect x="13.246" y="11.088" width="15.059" height="1.662" style="fill:rgb(29,136,216);fill-rule:nonzero;"/>
        <rect x="19.935" y="11.911" width="1.68" height="24.574" style="fill:rgb(29,136,216);fill-rule:nonzero;"/>
        <path d="M37.269,3.853L4.281,3.853L4.281,36.485L18.24,36.485L18.24,34.721L6.065,34.721L6.065,5.618L35.485,5.618L35.485,30.015L37.269,30.015L37.269,3.853Z" style="fill:rgb(58,58,58);fill-rule:nonzero;"/>
        <path d="M35.485,34.721L19.935,34.721L19.935,36.485L37.269,36.485L37.269,31.677L35.485,31.677L35.485,34.721Z" style="fill:rgb(29,136,216);fill-rule:nonzero;"/>
    </g>
</svg>
